<svg width="278" height="191" viewBox="0 0 278 191" fill="none" xmlns="http://www.w3.org/2000/svg">
<g filter="url(#filter0_d_53_144)">
<path fill-rule="evenodd" clip-rule="evenodd" d="M145.086 95.0483C134.727 89.8279 126.453 99.6492 123.611 105.212L129.643 104.43L136.356 124.861C132.528 126.021 131.774 130.429 131.875 132.488L132.267 135.504L133.571 139.811C134.267 142.107 139.26 147.665 141.213 149.512L148.506 154.616C154.608 158.201 154.326 151.982 153.422 148.424L148.855 124.731C173.784 120.103 181.979 135.766 182.96 144.177C183.54 146.091 185.28 146.086 186.077 145.844C194.209 135.439 193.342 123.267 191.893 118.482C188.401 116.614 185.972 119.057 185.193 120.512L186.208 123.862L188.528 131.518C189.885 137.376 187.45 140.03 186.063 140.624C184.51 120.672 170.773 116.386 163.64 116.711C154.254 121.899 159.358 118.919 163.153 116.741C163.311 116.729 163.474 116.719 163.64 116.711C163.793 116.627 163.949 116.54 164.11 116.451C174.133 110.907 177.615 93.2028 178.104 85.044C173.8 80.4965 167.562 83.0136 164.981 84.8406C165.363 112.31 153.674 118.22 147.782 117.741L145.086 95.0483ZM149.696 151.643L138.806 127.775C135.547 126.673 134.896 128.09 134.978 128.935C132.368 141.011 143.702 149.106 149.696 151.643Z" fill="#01010B"/>
<path d="M133.571 139.811C134.267 142.107 139.26 147.665 141.213 149.512L148.506 154.616C154.608 158.201 154.326 151.982 153.422 148.424L148.855 124.731C173.784 120.103 181.979 135.766 182.96 144.177C183.54 146.091 185.28 146.086 186.077 145.844C194.209 135.439 193.342 123.267 191.893 118.482C188.401 116.614 185.972 119.057 185.193 120.512L186.208 123.862L188.528 131.518C189.885 137.376 187.45 140.03 186.063 140.624C184.51 120.672 170.773 116.386 163.64 116.711M133.571 139.811C132.876 137.514 132.122 135.025 132.267 135.504M133.571 139.811L132.267 135.504M132.267 135.504L131.875 132.488C131.774 130.429 132.528 126.021 136.356 124.861L129.643 104.43L123.611 105.212C126.453 99.6492 134.727 89.8279 145.086 95.0483L147.782 117.741C153.674 118.22 165.363 112.31 164.981 84.8406C167.562 83.0136 173.8 80.4965 178.104 85.044C177.615 93.2028 174.133 110.907 164.11 116.451C163.949 116.54 163.793 116.627 163.64 116.711M163.64 116.711C154.254 121.899 159.358 118.919 163.153 116.741C163.311 116.729 163.474 116.719 163.64 116.711ZM138.806 127.775L149.696 151.643C143.702 149.106 132.368 141.011 134.978 128.935C134.896 128.09 135.547 126.673 138.806 127.775Z" stroke="#89CBFF" stroke-width="1.5"/>
</g>
<path d="M176.48 61.52H175.2V74H176.48V61.52ZM179.92 69.52V74H181.2V69.36C181.2 68.72 181.093 68.1867 180.88 67.76C180.677 67.3333 180.384 67.0133 180 66.8C179.627 66.5867 179.184 66.48 178.672 66.48C178.16 66.48 177.707 66.6133 177.312 66.88C176.928 67.1467 176.624 67.5093 176.4 67.968C176.176 68.416 176.064 68.9333 176.064 69.52H176.48C176.48 69.168 176.555 68.8533 176.704 68.576C176.864 68.2987 177.083 68.08 177.36 67.92C177.648 67.76 177.979 67.68 178.352 67.68C178.875 67.68 179.264 67.8347 179.52 68.144C179.787 68.4533 179.92 68.912 179.92 69.52ZM182.966 70.32C182.966 71.056 183.132 71.7173 183.462 72.304C183.804 72.88 184.262 73.3333 184.838 73.664C185.414 73.9947 186.06 74.16 186.774 74.16C187.5 74.16 188.145 73.9947 188.71 73.664C189.286 73.3333 189.74 72.88 190.07 72.304C190.412 71.7173 190.582 71.056 190.582 70.32C190.582 69.5733 190.412 68.912 190.07 68.336C189.74 67.76 189.286 67.3067 188.71 66.976C188.145 66.6453 187.5 66.48 186.774 66.48C186.06 66.48 185.414 66.6453 184.838 66.976C184.262 67.3067 183.804 67.76 183.462 68.336C183.132 68.912 182.966 69.5733 182.966 70.32ZM184.262 70.32C184.262 69.808 184.369 69.3547 184.582 68.96C184.806 68.5547 185.105 68.24 185.478 68.016C185.862 67.792 186.294 67.68 186.774 67.68C187.254 67.68 187.681 67.792 188.054 68.016C188.438 68.24 188.737 68.5547 188.95 68.96C189.174 69.3547 189.286 69.808 189.286 70.32C189.286 70.832 189.174 71.2853 188.95 71.68C188.737 72.0747 188.438 72.3893 188.054 72.624C187.681 72.848 187.254 72.96 186.774 72.96C186.294 72.96 185.862 72.848 185.478 72.624C185.105 72.3893 184.806 72.0747 184.582 71.68C184.369 71.2853 184.262 70.832 184.262 70.32ZM193.621 71.12V66.64H192.341V71.28C192.341 72.1547 192.57 72.8533 193.029 73.376C193.487 73.8987 194.101 74.16 194.869 74.16C195.359 74.16 195.786 74.0533 196.149 73.84C196.511 73.616 196.815 73.2853 197.061 72.848V74H198.341V66.64H197.061V71.12C197.061 71.4827 196.981 71.8027 196.821 72.08C196.671 72.3573 196.453 72.576 196.165 72.736C195.887 72.8853 195.562 72.96 195.189 72.96C194.677 72.96 194.287 72.8 194.021 72.48C193.754 72.16 193.621 71.7067 193.621 71.12ZM201.051 71.744L200.043 72.368C200.182 72.656 200.384 72.9387 200.651 73.216C200.928 73.4933 201.264 73.7227 201.659 73.904C202.054 74.0747 202.496 74.16 202.987 74.16C203.744 74.16 204.352 73.9467 204.811 73.52C205.28 73.0933 205.515 72.56 205.515 71.92C205.515 71.4827 205.408 71.1253 205.195 70.848C204.992 70.5707 204.715 70.336 204.363 70.144C204.011 69.9413 203.622 69.7547 203.195 69.584C202.939 69.4773 202.694 69.3653 202.459 69.248C202.224 69.1307 202.032 68.9973 201.883 68.848C201.734 68.6987 201.659 68.528 201.659 68.336C201.659 68.0907 201.755 67.9093 201.947 67.792C202.139 67.6747 202.368 67.616 202.635 67.616C203.019 67.616 203.36 67.7067 203.659 67.888C203.968 68.0693 204.224 68.2987 204.427 68.576L205.451 67.92C205.302 67.6427 205.094 67.3973 204.827 67.184C204.56 66.9707 204.251 66.8 203.899 66.672C203.558 66.544 203.19 66.48 202.795 66.48C202.4 66.48 202.016 66.5493 201.643 66.688C201.28 66.8267 200.982 67.04 200.747 67.328C200.523 67.616 200.411 67.9787 200.411 68.416C200.411 68.8427 200.518 69.2 200.731 69.488C200.955 69.7653 201.227 69.9947 201.547 70.176C201.878 70.3467 202.203 70.496 202.523 70.624C202.811 70.7307 203.083 70.848 203.339 70.976C203.595 71.0933 203.803 71.2427 203.963 71.424C204.134 71.5947 204.219 71.808 204.219 72.064C204.219 72.352 204.112 72.5813 203.899 72.752C203.696 72.912 203.414 72.992 203.051 72.992C202.752 72.992 202.475 72.9387 202.219 72.832C201.974 72.7147 201.755 72.56 201.563 72.368C201.371 72.176 201.2 71.968 201.051 71.744ZM210.048 74.16C210.837 74.16 211.52 74.0053 212.096 73.696C212.683 73.376 213.168 72.9067 213.552 72.288L212.512 71.632C212.245 72.08 211.92 72.416 211.536 72.64C211.152 72.8533 210.709 72.96 210.208 72.96C209.707 72.96 209.28 72.8533 208.928 72.64C208.576 72.4267 208.309 72.1173 208.128 71.712C207.947 71.3067 207.856 70.816 207.856 70.24C207.867 69.6747 207.963 69.2 208.144 68.816C208.336 68.4213 208.603 68.1227 208.944 67.92C209.296 67.7067 209.717 67.6 210.208 67.6C210.624 67.6 210.987 67.6907 211.296 67.872C211.605 68.0533 211.845 68.304 212.016 68.624C212.197 68.944 212.288 69.3227 212.288 69.76C212.288 69.8347 212.272 69.9307 212.24 70.048C212.208 70.1547 212.176 70.2347 212.144 70.288L212.656 69.552H207.376V70.64H213.664C213.664 70.6187 213.664 70.5707 213.664 70.496C213.675 70.4107 213.68 70.3307 213.68 70.256C213.68 69.4773 213.541 68.8053 213.264 68.24C212.987 67.6747 212.587 67.2427 212.064 66.944C211.552 66.6347 210.933 66.48 210.208 66.48C209.483 66.48 208.843 66.64 208.288 66.96C207.744 67.28 207.317 67.728 207.008 68.304C206.709 68.88 206.56 69.552 206.56 70.32C206.56 71.0773 206.704 71.744 206.992 72.32C207.291 72.896 207.701 73.3493 208.224 73.68C208.757 74 209.365 74.16 210.048 74.16Z" fill="black"/>
<g filter="url(#filter1_d_53_144)">
<path d="M129.137 44.1859C136.475 52.5227 151.44 73.58 152.586 91.1152C147.034 86.0872 134.012 75.1116 126.344 71.4339C106.463 53.7182 119.922 45.8871 129.137 44.1859Z" fill="#01010B" stroke="#FFD622"/>
<path d="M54.5326 67.0382C46.9255 71.4058 40.0337 78.3423 48.7589 118.992L57.496 96.3165L65.2453 77.5496C66.3525 68.1063 58.5648 66.6073 54.5326 67.0382Z" fill="#01010B" stroke="#FFD622"/>
<path d="M128.906 80.6322C121.28 56.9775 119.026 17.5711 171.012 49.1832L174.89 44.47C160.706 19.0086 123.757 -16.1338 89.4331 46.9885C61.3721 28.8518 7.88781 15.0962 18.4387 105.167L25.5052 106.314C31.3481 78.2162 49.5153 36.7212 75.4405 95.5216C84.1613 88.9408 107.064 76.7497 128.906 80.6322Z" fill="#01010B"/>
<path d="M78.6598 107.082C86.7872 107.067 108.859 104.07 132.125 92.1923L128.906 80.6322C107.064 76.7497 84.1613 88.9408 75.4405 95.5216L78.6598 107.082Z" fill="#01010B"/>
<path d="M128.906 80.6322L132.125 92.1923C108.859 104.07 86.7872 107.067 78.6598 107.082L75.4405 95.5216M128.906 80.6322C121.28 56.9775 119.026 17.5711 171.012 49.1832L174.89 44.47C160.706 19.0086 123.757 -16.1338 89.4331 46.9885C61.3721 28.8518 7.88781 15.0962 18.4387 105.167L25.5052 106.314C31.3481 78.2162 49.5153 36.7212 75.4405 95.5216M128.906 80.6322C107.064 76.7497 84.1613 88.9408 75.4405 95.5216" stroke="#FFD622"/>
<path d="M22.0922 103.376C25.6487 71.4174 48.311 23.8231 92.9322 55.8254M92.9322 55.8254L100.123 81.646M92.9322 55.8254C101.003 36.9691 126.417 1.24451 173.379 44.6362" stroke="#FFD622"/>
<ellipse cx="21.9316" cy="104.664" rx="5.5" ry="6" transform="rotate(-15.5618 21.9316 104.664)" fill="#FFD622"/>
<ellipse cx="173.701" cy="45.7892" rx="5.5" ry="6" transform="rotate(-15.5618 173.701 45.7892)" fill="#FFD622"/>
<path d="M60.2091 70.6477C55.9667 72.6551 47.6493 85.7459 49.8322 116.33" stroke="#FFD622"/>
<path d="M125.245 57.2072C129.342 56.8794 138.527 62.5712 150.728 88.3824" stroke="#FFD622"/>
<ellipse cx="48.4907" cy="118.028" rx="5.5" ry="6" transform="rotate(-15.5618 48.4907 118.028)" fill="#4DB6FF"/>
<ellipse cx="152.8" cy="90.0177" rx="5.5" ry="6" transform="rotate(-15.5618 152.8 90.0177)" fill="#4DB6FF"/>
</g>
<g filter="url(#filter2_d_53_144)">
<path d="M70.2665 107.464C71.4623 105.294 74.5348 100.792 77.2584 100.142C78.887 99.068 83.1125 97.1005 86.9855 97.8216C87.4332 97.5434 88.8801 97.5752 91.0861 99.9276C91.6528 107.331 93.0878 123.404 94.2944 128.462C95.874 139.394 98.4772 161.082 96.2533 160.378L80.69 164.091C71.9267 163.268 54.6998 158.571 55.8992 146.359C56.6309 142.244 60.379 135.832 69.5171 143.111C69.2495 149.172 73.4295 160.374 92.2911 156.697C86.6333 141.598 75.3961 110.867 75.7102 108.736L70.2665 107.464Z" fill="#01010B"/>
<path d="M96.2533 160.378C98.4772 161.082 95.874 139.394 94.2944 128.462C93.0878 123.404 91.6528 107.331 91.0861 99.9276C88.8801 97.5752 87.4332 97.5434 86.9855 97.8216C83.1125 97.1005 78.887 99.068 77.2584 100.142C74.5348 100.792 71.4623 105.294 70.2665 107.464L75.7102 108.736C75.3961 110.867 86.6333 141.598 92.2911 156.697C73.4295 160.374 69.2495 149.172 69.5171 143.111C60.379 135.832 56.6309 142.244 55.8992 146.359C54.6999 158.571 71.9267 163.268 80.69 164.091M96.2533 160.378C93.4973 161.036 86.5262 162.699 80.69 164.091M96.2533 160.378L80.69 164.091" stroke="#89CBFF" stroke-width="1.5"/>
</g>
<g filter="url(#filter3_d_53_144)">
<path fill-rule="evenodd" clip-rule="evenodd" d="M216.175 59.588C218.008 55.9213 226.275 49.688 244.675 54.088C250.842 54.7547 263.175 58.288 263.175 67.088C262.675 69.4213 259.975 74.988 253.175 78.588C256.342 78.088 261.875 79.488 258.675 89.088C257.342 93.4213 255.075 103.688 256.675 110.088C257.842 111.421 260.375 112.688 261.175 107.088C261.842 103.755 263.175 95.888 263.175 91.088C264.342 88.9213 267.275 85.888 269.675 91.088C270.175 95.9213 268.275 107.788 256.675 116.588C255.175 117.421 250.675 111.988 244.675 83.588C243.008 83.088 238.975 82.788 236.175 85.588L232.675 108.588C232.008 112.588 229.875 119.388 226.675 114.588C224.175 111.421 218.575 103.488 216.175 97.088C215.508 94.4213 215.175 89.088 219.175 89.088C220.508 88.9213 223.275 91.188 223.675 101.588C223.675 105.921 224.575 113.988 228.175 111.588V101.588L225.675 86.088C224.008 78.588 221.175 62.988 223.175 60.588L216.175 59.588ZM240.175 59.588C238.508 64.4213 235.375 75.488 236.175 81.088C245.508 75.088 259.375 62.388 240.175 59.588Z" fill="#01010B"/>
<path fill-rule="evenodd" clip-rule="evenodd" d="M216.175 59.588C218.008 55.9213 226.275 49.688 244.675 54.088C250.842 54.7547 263.175 58.288 263.175 67.088C262.675 69.4213 259.975 74.988 253.175 78.588C256.342 78.088 261.875 79.488 258.675 89.088C257.342 93.4213 255.075 103.688 256.675 110.088C257.842 111.421 260.375 112.688 261.175 107.088C261.842 103.755 263.175 95.888 263.175 91.088C264.342 88.9213 267.275 85.888 269.675 91.088C270.175 95.9213 268.275 107.788 256.675 116.588C255.175 117.421 250.675 111.988 244.675 83.588C243.008 83.088 238.975 82.788 236.175 85.588L232.675 108.588C232.008 112.588 229.875 119.388 226.675 114.588C224.175 111.421 218.575 103.488 216.175 97.088C215.508 94.4213 215.175 89.088 219.175 89.088C220.508 88.9213 223.275 91.188 223.675 101.588C223.675 105.921 224.575 113.988 228.175 111.588V101.588L225.675 86.088C224.008 78.588 221.175 62.988 223.175 60.588L216.175 59.588ZM240.175 59.588C238.508 64.4213 235.375 75.488 236.175 81.088C245.508 75.088 259.375 62.388 240.175 59.588Z" stroke="#89CBFF" stroke-width="1.5"/>
</g>
<g filter="url(#filter4_d_53_144)">
<path d="M221.864 125.027C227.197 122.193 235.364 114.727 225.364 107.527C211.197 103.86 185.064 102.827 193.864 128.027C188.364 131.693 178.464 142.127 182.864 154.527C185.531 160.693 193.964 172.327 206.364 169.527C209.364 170.193 217.964 169.327 228.364 160.527C232.697 156.36 240.464 146.927 236.864 142.527C234.197 140.36 226.964 139.727 219.364 154.527C214.364 162.193 201.964 173.327 192.364 156.527C190.864 149.193 191.264 133.727 204.864 130.527C205.864 130.193 207.264 128.627 204.864 125.027C202.864 122.027 200.664 115.427 207.864 113.027C211.031 111.693 218.164 110.027 221.364 114.027C222.031 115.027 222.564 117.427 219.364 119.027C218.531 121.027 217.864 125.027 221.864 125.027Z" fill="#01010B"/>
<path d="M221.864 125.027C227.197 122.193 235.364 114.727 225.364 107.527C211.197 103.86 185.064 102.827 193.864 128.027C188.364 131.693 178.464 142.127 182.864 154.527C185.531 160.693 193.964 172.327 206.364 169.527C209.364 170.193 217.964 169.327 228.364 160.527C232.697 156.36 240.464 146.927 236.864 142.527C234.197 140.36 226.964 139.727 219.364 154.527C214.364 162.193 201.964 173.327 192.364 156.527C190.864 149.193 191.264 133.727 204.864 130.527C205.864 130.193 207.264 128.627 204.864 125.027C202.864 122.027 200.664 115.427 207.864 113.027C211.031 111.693 218.164 110.027 221.364 114.027C222.031 115.027 222.564 117.427 219.364 119.027C218.531 121.027 217.864 125.027 221.864 125.027Z" stroke="#FFD622" stroke-width="1.5"/>
</g>
<g filter="url(#filter5_d_53_144)">
<path d="M127.771 117.913C117.605 116.079 96.7712 120.813 94.7712 154.413C94.6045 165.246 100.171 185.913 123.771 181.913C130.438 180.246 144.571 172.413 147.771 154.413C150.271 142.579 149.771 119.513 127.771 121.913C122.605 124.413 113.571 130.413 118.771 134.413C121.771 133.413 128.471 132.013 131.271 134.413C133.438 136.079 137.371 142.913 135.771 156.913C135.401 162.913 132.483 175.613 123.771 178.413C118.105 177.913 106.771 172.913 106.771 156.913C106.438 146.246 109.071 124.613 122.271 123.413L127.771 119.913V117.913Z" fill="#01010B"/>
<path d="M127.771 117.913C117.605 116.079 96.7712 120.813 94.7712 154.413C94.6045 165.246 100.171 185.913 123.771 181.913C130.438 180.246 144.571 172.413 147.771 154.413C150.271 142.579 149.771 119.513 127.771 121.913C122.605 124.413 113.571 130.413 118.771 134.413C121.771 133.413 128.471 132.013 131.271 134.413C133.438 136.079 137.371 142.913 135.771 156.913C135.401 162.913 132.483 175.613 123.771 178.413C118.105 177.913 106.771 172.913 106.771 156.913C106.438 146.246 109.071 124.613 122.271 123.413L127.771 119.913V117.913Z" stroke="#FFD622" stroke-width="1.5"/>
</g>
<defs>
<filter id="filter0_d_53_144" x="122.295" y="81.7284" width="78.2944" height="81.7144" filterUnits="userSpaceOnUse" color-interpolation-filters="sRGB">
<feFlood flood-opacity="0" result="BackgroundImageFix"/>
<feColorMatrix in="SourceAlpha" type="matrix" values="0 0 0 0 0 0 0 0 0 0 0 0 0 0 0 0 0 0 127 0" result="hardAlpha"/>
<feOffset dx="4" dy="4"/>
<feGaussianBlur stdDeviation="1.5"/>
<feComposite in2="hardAlpha" operator="out"/>
<feColorMatrix type="matrix" values="0 0 0 0 0 0 0 0 0 0 0 0 0 0 0 0 0 0 0.6 0"/>
<feBlend mode="normal" in2="BackgroundImageFix" result="effect1_dropShadow_53_144"/>
<feBlend mode="normal" in="SourceGraphic" in2="effect1_dropShadow_53_144" result="shape"/>
</filter>
<filter id="filter1_d_53_144" x="0" y="0" width="197.535" height="139.149" filterUnits="userSpaceOnUse" color-interpolation-filters="sRGB">
<feFlood flood-opacity="0" result="BackgroundImageFix"/>
<feColorMatrix in="SourceAlpha" type="matrix" values="0 0 0 0 0 0 0 0 0 0 0 0 0 0 0 0 0 0 127 0" result="hardAlpha"/>
<feOffset dx="4" dy="4"/>
<feGaussianBlur stdDeviation="1.5"/>
<feComposite in2="hardAlpha" operator="out"/>
<feColorMatrix type="matrix" values="0 0 0 0 0 0 0 0 0 0 0 0 0 0 0 0 0 0 0.6 0"/>
<feBlend mode="normal" in2="BackgroundImageFix" result="effect1_dropShadow_53_144"/>
<feBlend mode="normal" in="SourceGraphic" in2="effect1_dropShadow_53_144" result="shape"/>
</filter>
<filter id="filter2_d_53_144" x="55.0892" y="96.9165" width="49.7754" height="74.9326" filterUnits="userSpaceOnUse" color-interpolation-filters="sRGB">
<feFlood flood-opacity="0" result="BackgroundImageFix"/>
<feColorMatrix in="SourceAlpha" type="matrix" values="0 0 0 0 0 0 0 0 0 0 0 0 0 0 0 0 0 0 127 0" result="hardAlpha"/>
<feOffset dx="4" dy="4"/>
<feGaussianBlur stdDeviation="1.5"/>
<feComposite in2="hardAlpha" operator="out"/>
<feColorMatrix type="matrix" values="0 0 0 0 0 0 0 0 0 0 0 0 0 0 0 0 0 0 0.6 0"/>
<feBlend mode="normal" in2="BackgroundImageFix" result="effect1_dropShadow_53_144"/>
<feBlend mode="normal" in="SourceGraphic" in2="effect1_dropShadow_53_144" result="shape"/>
</filter>
<filter id="filter3_d_53_144" x="215.018" y="51.8271" width="62.4785" height="72.5897" filterUnits="userSpaceOnUse" color-interpolation-filters="sRGB">
<feFlood flood-opacity="0" result="BackgroundImageFix"/>
<feColorMatrix in="SourceAlpha" type="matrix" values="0 0 0 0 0 0 0 0 0 0 0 0 0 0 0 0 0 0 127 0" result="hardAlpha"/>
<feOffset dx="4" dy="4"/>
<feGaussianBlur stdDeviation="1.5"/>
<feComposite in2="hardAlpha" operator="out"/>
<feColorMatrix type="matrix" values="0 0 0 0 0 0 0 0 0 0 0 0 0 0 0 0 0 0 0.6 0"/>
<feBlend mode="normal" in2="BackgroundImageFix" result="effect1_dropShadow_53_144"/>
<feBlend mode="normal" in="SourceGraphic" in2="effect1_dropShadow_53_144" result="shape"/>
</filter>
<filter id="filter4_d_53_144" x="181.017" y="104.825" width="64.5217" height="72.8799" filterUnits="userSpaceOnUse" color-interpolation-filters="sRGB">
<feFlood flood-opacity="0" result="BackgroundImageFix"/>
<feColorMatrix in="SourceAlpha" type="matrix" values="0 0 0 0 0 0 0 0 0 0 0 0 0 0 0 0 0 0 127 0" result="hardAlpha"/>
<feOffset dx="4" dy="4"/>
<feGaussianBlur stdDeviation="1.5"/>
<feComposite in2="hardAlpha" operator="out"/>
<feColorMatrix type="matrix" values="0 0 0 0 0 0 0 0 0 0 0 0 0 0 0 0 0 0 0.6 0"/>
<feBlend mode="normal" in2="BackgroundImageFix" result="effect1_dropShadow_53_144"/>
<feBlend mode="normal" in="SourceGraphic" in2="effect1_dropShadow_53_144" result="shape"/>
</filter>
<filter id="filter5_d_53_144" x="94.0176" y="116.825" width="62.5295" height="73.3445" filterUnits="userSpaceOnUse" color-interpolation-filters="sRGB">
<feFlood flood-opacity="0" result="BackgroundImageFix"/>
<feColorMatrix in="SourceAlpha" type="matrix" values="0 0 0 0 0 0 0 0 0 0 0 0 0 0 0 0 0 0 127 0" result="hardAlpha"/>
<feOffset dx="4" dy="4"/>
<feGaussianBlur stdDeviation="1.5"/>
<feComposite in2="hardAlpha" operator="out"/>
<feColorMatrix type="matrix" values="0 0 0 0 0 0 0 0 0 0 0 0 0 0 0 0 0 0 0.6 0"/>
<feBlend mode="normal" in2="BackgroundImageFix" result="effect1_dropShadow_53_144"/>
<feBlend mode="normal" in="SourceGraphic" in2="effect1_dropShadow_53_144" result="shape"/>
</filter>
</defs>
</svg>
